<svg xmlns="http://www.w3.org/2000/svg" viewBox="0 0 149.26 51.01"><defs><style>.cls-1{fill:#fcc443;}.cls-2{fill:#fff;}</style></defs><g id="Layer_2" data-name="Layer 2"><g id="Layer_1-2" data-name="Layer 1"><path class="cls-1" d="M.57,11.62S-.72,18.72.57,22C3.16,25.83,7,30.35,26.4,34.22S47.71,51,47.71,51s16.14-15.5,0-37.45C56.1,9.69,56.1,0,56.1,0L37.38,7.1C10.9,14.85,1.87,7.1.57,11.62Z"/><path class="cls-2" d="M28,13.24A26.24,26.24,0,0,1,34.47,12c2.58,0,3.88,3.87,3.23,4.51s-1.29,1.3-4.52.65S28,13.24,28,13.24Z"/><path d="M77.86,20.55l-1.54-4.27H70.43l-1.51,4.27H66.27L72,5.09h2.74l5.77,15.46Zm-2.2-6.45L74.21,9.91c-.1-.28-.25-.72-.43-1.33s-.32-1-.39-1.32a23.17,23.17,0,0,1-.83,2.83l-1.39,4Z"/><path d="M88.87,12.2h5.67v7.73a17.22,17.22,0,0,1-2.67.65,19.87,19.87,0,0,1-2.77.19,6.94,6.94,0,0,1-5.39-2.08,8.3,8.3,0,0,1-1.9-5.84A7.77,7.77,0,0,1,84,7a8.05,8.05,0,0,1,5.89-2.1,11.67,11.67,0,0,1,4.58.92L93.53,8a9,9,0,0,0-3.75-.86,5,5,0,0,0-3.9,1.55,6,6,0,0,0-1.43,4.23,6.33,6.33,0,0,0,1.29,4.3,4.68,4.68,0,0,0,3.71,1.47,12.35,12.35,0,0,0,2.61-.31v-4H88.87Z"/><path d="M107,20.55H98.24V5.15H107V7.28h-6.19v4.19h5.8v2.11h-5.8v4.84H107Z"/><path d="M123.12,20.55H120L112.46,8.28h-.09l0,.68c.1,1.31.15,2.5.15,3.59v8h-2.29V5.15h3.06l7.55,12.21H121c0-.16,0-.75-.08-1.76s-.07-1.81-.07-2.38V5.15h2.31Z"/><path d="M132.51,20.55H130V7.31h-4.53V5.15H137V7.31h-4.53Z"/><path d="M148.28,16.37a3.88,3.88,0,0,1-1.48,3.23,6.47,6.47,0,0,1-4.1,1.17,9.8,9.8,0,0,1-4.28-.82V17.57a11.62,11.62,0,0,0,2.24.78,9.46,9.46,0,0,0,2.21.29,3.49,3.49,0,0,0,2.2-.57,1.84,1.84,0,0,0,.71-1.53,1.92,1.92,0,0,0-.65-1.47,9.74,9.74,0,0,0-2.7-1.42,7.21,7.21,0,0,1-3-2,4.15,4.15,0,0,1-.86-2.63A3.68,3.68,0,0,1,140,6a5.72,5.72,0,0,1,3.68-1.1,10.74,10.74,0,0,1,4.4,1L147.25,8a9.72,9.72,0,0,0-3.67-.86,2.83,2.83,0,0,0-1.85.53A1.74,1.74,0,0,0,141.1,9a1.93,1.93,0,0,0,.25,1,2.48,2.48,0,0,0,.83.81,13.94,13.94,0,0,0,2.09,1,11,11,0,0,1,2.48,1.32,3.83,3.83,0,0,1,1.16,1.38A4.09,4.09,0,0,1,148.28,16.37Z"/><path d="M80.83,38.6a7.64,7.64,0,0,1-2.12,5.83,8.47,8.47,0,0,1-6.1,2H68.3V31.05h4.77a7.89,7.89,0,0,1,5.72,2A7.39,7.39,0,0,1,80.83,38.6Zm-2.65.09q0-5.53-5.18-5.54H70.82V44.33h1.79Q78.17,44.33,78.18,38.69Z"/><path d="M96.22,31.05V41a5.89,5.89,0,0,1-.74,3,4.85,4.85,0,0,1-2.11,2,7.39,7.39,0,0,1-3.32.69,6.15,6.15,0,0,1-4.45-1.52A5.45,5.45,0,0,1,84,41V31.05h2.53v9.74a3.92,3.92,0,0,0,.89,2.82,3.66,3.66,0,0,0,2.72.9c2.37,0,3.56-1.24,3.56-3.74V31.05Z"/><path d="M120,46.45h-2.74l-2.61-9.19c-.12-.4-.26-1-.42-1.73s-.28-1.28-.31-1.58c-.07.45-.19,1-.34,1.75s-.29,1.25-.4,1.6l-2.55,9.15h-2.74l-2-7.71-2-7.69h2.57l2.2,9c.34,1.44.59,2.71.74,3.82.08-.6.19-1.27.35-2s.29-1.34.42-1.8l2.51-9h2.49l2.57,9a31.47,31.47,0,0,1,.78,3.75,28.11,28.11,0,0,1,.76-3.84l2.19-8.95H124Z"/><path d="M134.89,46.45h-8.71V31.05h8.71v2.12h-6.2v4.2h5.81v2.11h-5.81v4.83h6.2Z"/><path d="M138.22,31.05h4.57a8.67,8.67,0,0,1,4.6.92,3.25,3.25,0,0,1,1.42,2.93,3.53,3.53,0,0,1-.7,2.25,3.1,3.1,0,0,1-2,1.12v.11a3.93,3.93,0,0,1,2.39,1.21,3.63,3.63,0,0,1,.76,2.43,4,4,0,0,1-1.45,3.26,6.24,6.24,0,0,1-4,1.17h-5.56Zm2.52,6.36h2.42a4.21,4.21,0,0,0,2.31-.5,1.92,1.92,0,0,0,.73-1.7,1.7,1.7,0,0,0-.79-1.57,4.8,4.8,0,0,0-2.49-.49h-2.18Zm0,2v4.88h2.67a4,4,0,0,0,2.39-.6,2.24,2.24,0,0,0,.81-1.92,2.05,2.05,0,0,0-.82-1.78,4.44,4.44,0,0,0-2.5-.58Z"/></g></g></svg>