<svg xmlns="http://www.w3.org/2000/svg" width="30.376" height="21.697" viewBox="0 0 30.376 21.697">
  <g id="surface1" transform="translate(-1 -3)">
    <path id="Tracé_177" data-name="Tracé 177" d="M9.679,3A8.748,8.748,0,0,0,3.043,5.8,7.461,7.461,0,0,0,1,10.594V20.9a3.813,3.813,0,0,0,3.8,3.8h5.424a3.813,3.813,0,0,0,3.8-3.8V15.476a3.813,3.813,0,0,0-3.8-3.8H4.8a3.655,3.655,0,0,0-1.627.39V10.594A5.718,5.718,0,0,1,4.653,7.255,6.388,6.388,0,0,1,9.679,5.17ZM27.037,3A8.748,8.748,0,0,0,20.4,5.8a7.461,7.461,0,0,0-2.043,4.8V20.9a3.813,3.813,0,0,0,3.8,3.8h5.424a3.813,3.813,0,0,0,3.8-3.8V15.476a3.813,3.813,0,0,0-3.8-3.8H22.155a3.655,3.655,0,0,0-1.627.39V10.594a5.718,5.718,0,0,1,1.483-3.339A6.388,6.388,0,0,1,27.037,5.17ZM4.8,13.849h5.424a1.617,1.617,0,0,1,1.627,1.627V20.9a1.617,1.617,0,0,1-1.627,1.627H4.8A1.617,1.617,0,0,1,3.17,20.9V15.476A1.617,1.617,0,0,1,4.8,13.849Zm17.358,0h5.424a1.617,1.617,0,0,1,1.627,1.627V20.9a1.617,1.617,0,0,1-1.627,1.627H22.155A1.617,1.617,0,0,1,20.527,20.9V15.476A1.617,1.617,0,0,1,22.155,13.849Z" transform="translate(0 0)" fill="#030f4b"/>
  </g>
</svg>
