<svg xmlns="http://www.w3.org/2000/svg" width="39.993" height="40" viewBox="0 0 39.993 40">
  <path id="Tracé_457" data-name="Tracé 457" d="M10.3,2A1.651,1.651,0,0,0,9.157,2.5L2.49,9.162a1.65,1.65,0,0,0,0,2.344L12.921,21.95,6.787,28.2,2.282,41.73,15.8,37.211l.286-.26,5.964-5.873,10.43,10.443a1.706,1.706,0,0,0,2.37,0l6.667-6.667a1.706,1.706,0,0,0,0-2.37L31.151,22.132l8.881-8.751h.013A6.654,6.654,0,0,0,35.331,2.013a6.61,6.61,0,0,0-4.714,1.94H30.6l-8.738,8.894L11.5,2.5A1.592,1.592,0,0,0,10.3,2Zm.026,4.024,2.643,2.643-2.149,2.162,2.344,2.344,2.162-2.149,4.193,4.206L15.265,19.58,6.019,10.334ZM30.161,9.188,34.81,13.85,14.027,34.294,7.543,36.456,9.7,29.984ZM28.768,24.476l4.206,4.193-2.162,2.149,2.37,2.37,2.149-2.162,2.643,2.643-4.31,4.31-9.245-9.245Z" transform="translate(-2.002 -2)" fill="#030f4b"/>
</svg>
