<svg xmlns="http://www.w3.org/2000/svg" width="40" height="40" viewBox="0 0 40 40">
  <path id="Tracé_460" data-name="Tracé 460" d="M16.385,1V4.077H8.692A4.632,4.632,0,0,0,4.077,8.692v7.692H1v9.231h9.231V16.385H7.154V8.692A1.519,1.519,0,0,1,8.692,7.154h7.692v3.077h9.231V1Zm3.077,3.077h3.077V7.154H19.462Zm9.231,0V7.154h4.615a1.519,1.519,0,0,1,1.538,1.538v7.692H31.769v9.231H41V16.385H37.923V8.692a4.632,4.632,0,0,0-4.615-4.615ZM4.077,19.462H7.154v3.077H4.077Zm30.769,0h3.077v3.077H34.846ZM4.077,28.692v4.615a4.632,4.632,0,0,0,4.615,4.615h7.692V41h9.231V31.769H16.385v3.077H8.692a1.519,1.519,0,0,1-1.538-1.538V28.692Zm30.769,0v4.615a1.519,1.519,0,0,1-1.538,1.538H28.692v3.077h4.615a4.632,4.632,0,0,0,4.615-4.615V28.692ZM19.462,34.846h3.077v3.077H19.462Z" transform="translate(-1 -1)" fill="#030f4b"/>
</svg>
