<svg id="surface1" xmlns="http://www.w3.org/2000/svg" width="54.507" height="40" viewBox="0 0 54.507 40">
  <path id="Tracé_455" data-name="Tracé 455" d="M31.887,1.992A1.83,1.83,0,0,0,30.07,3.809V6.534c-3.038-2.257-6.842-4.514-10.9-4.514a10.9,10.9,0,1,0,0,21.8c4.159,0,8.034-2.342,11.1-4.627a1.8,1.8,0,0,0,1.618.994h21.8a1.811,1.811,0,0,0,1.817-1.817V3.809A1.83,1.83,0,0,0,53.69,1.992ZM19.169,23.823A18.2,18.2,0,0,0,1,41.992H4.634a14.535,14.535,0,0,1,29.07,0h3.634A18.2,18.2,0,0,0,19.169,23.823ZM33.7,5.626H51.873v10.93H33.7V16.3c1.306-1.207,2.257-2.158,2.257-2.158l1.121-1.221-1.136-1.235S35.01,10.75,33.7,9.558Zm-14.535.028c2.74,0,6.416,2,9.255,4.173A25.754,25.754,0,0,1,31.9,12.922a24.026,24.026,0,0,1-3.449,3.094c-2.839,2.172-6.5,4.173-9.283,4.173a7.268,7.268,0,1,1,0-14.535ZM39.155,9.288a1.817,1.817,0,1,0,1.817,1.817A1.811,1.811,0,0,0,39.155,9.288Zm7.268,0a1.817,1.817,0,1,0,1.817,1.817A1.811,1.811,0,0,0,46.422,9.288Z" transform="translate(-1 -1.992)" fill="#030f4b"/>
</svg>
