<svg xmlns="http://www.w3.org/2000/svg" width="40" height="40" viewBox="0 0 40 40">
  <path id="Tracé_459" data-name="Tracé 459" d="M21,1A20.015,20.015,0,0,0,1,21v1.538a6.181,6.181,0,0,0,6.154,6.154H8.692a4.586,4.586,0,0,1,4.615,4.615v1.538A6.181,6.181,0,0,0,19.462,41H21A20,20,0,0,0,21,1Zm0,3.077a16.923,16.923,0,1,1,0,33.846H19.462a3.052,3.052,0,0,1-3.077-3.077V33.308a7.715,7.715,0,0,0-7.692-7.692H7.154a3.052,3.052,0,0,1-3.077-3.077V21A16.9,16.9,0,0,1,21,4.077ZM19.462,7.154a3.077,3.077,0,1,0,3.077,3.077A3.083,3.083,0,0,0,19.462,7.154Zm9.231,3.077a3.077,3.077,0,1,0,3.077,3.077A3.083,3.083,0,0,0,28.692,10.231ZM10.231,13.308a3.077,3.077,0,1,0,3.077,3.077A3.083,3.083,0,0,0,10.231,13.308Zm21.538,6.154a3.077,3.077,0,1,0,3.077,3.077A3.083,3.083,0,0,0,31.769,19.462Zm-6.154,9.231a3.077,3.077,0,1,0,3.077,3.077A3.083,3.083,0,0,0,25.615,28.692Z" transform="translate(-1 -1)" fill="#030f4b"/>
</svg>
