<svg xmlns="http://www.w3.org/2000/svg" width="40" height="40" viewBox="0 0 40 40">
  <path id="Tracé_458" data-name="Tracé 458" d="M7.154,1V4.077H5.615A4.632,4.632,0,0,0,1,8.692V36.385A4.632,4.632,0,0,0,5.615,41H36.385A4.632,4.632,0,0,0,41,36.385V8.692a4.632,4.632,0,0,0-4.615-4.615H34.846V1H31.769V4.077H10.231V1ZM5.615,7.154H7.154v3.077h3.077V7.154H31.769v3.077h3.077V7.154h1.538a1.519,1.519,0,0,1,1.538,1.538v4.615H4.077V8.692A1.519,1.519,0,0,1,5.615,7.154ZM4.077,16.385H37.923v20a1.519,1.519,0,0,1-1.538,1.538H5.615a1.519,1.519,0,0,1-1.538-1.538Zm18.462,6.154v9.231h9.231V22.538Zm3.077,3.077h3.077v3.077H25.615Z" transform="translate(-1 -1)" fill="#030f4b"/>
</svg>
