<svg xmlns="http://www.w3.org/2000/svg" width="46.667" height="40" viewBox="0 0 46.667 40">
  <path id="icons8-internet_folder" d="M6,2A5.025,5.025,0,0,0,1,7V37a5.025,5.025,0,0,0,5,5H42.667a5.025,5.025,0,0,0,5-5V13.667a5.025,5.025,0,0,0-5-5H20.329L18.148,4.624A5,5,0,0,0,13.747,2ZM6,5.333h7.747a1.656,1.656,0,0,1,1.465.872L16.54,8.667H4.333V7A1.644,1.644,0,0,1,6,5.333ZM4.333,12H42.667a1.644,1.644,0,0,1,1.667,1.667V37a1.644,1.644,0,0,1-1.667,1.667H6A1.644,1.644,0,0,1,4.333,37Zm20,3.333a10,10,0,1,0,10,10A10.025,10.025,0,0,0,24.333,15.333Zm1.159,3.451a6.6,6.6,0,0,1,2.24.833l.111,1.185-.794-.339-.638.547.111,1.517,1.608-.495,1.979.625-.5.911L28.4,22.84l-1.3.182-1.27.938-.71,2.188,1.419,1.178s1.482-.26,1.562-.26a9.767,9.767,0,0,1,.605,1.328l-.833,2.578A6.643,6.643,0,0,1,24.333,32a6.719,6.719,0,0,1-1.152-.117l-.332-.566.794-2.923L20.661,26.18H17.921l-.208-.423c-.009-.143-.046-.278-.046-.423a6.694,6.694,0,0,1,.1-1.035l1.413-1.113,2.956-1.38-.449-1.934,1.27-.286.605.833,2.214-.41Z" transform="translate(-1 -2)" fill="#030f4b"/>
</svg>
